<svg xmlns="http://www.w3.org/2000/svg" xmlns:xlink="http://www.w3.org/1999/xlink" width="24" height="36"><defs><path id="a" d="M836 21a3 3 0 0 1 3-3h15a3 3 0 0 1 3 3v30a3 3 0 0 1-3 3h-15a3 3 0 0 1-3-3z"/><path id="b" d="M846.5 48a1.5 1.5 0 1 1 0 3 1.5 1.5 0 0 1 0-3z"/><path id="c" d="M836 22h21"/><path id="d" d="M836 45h21"/><clipPath id="e"><use fill="#fff" xlink:href="#a"/></clipPath><clipPath id="f"><use fill="#fff" xlink:href="#b"/></clipPath><clipPath id="g"><use fill="#fff" xlink:href="#c"/></clipPath><clipPath id="h"><use fill="#fff" xlink:href="#d"/></clipPath></defs><use fill="#fff" fill-opacity="0" stroke="#ff9227" stroke-miterlimit="50" stroke-width="2" clip-path="url(&quot;#e&quot;)" xlink:href="#a" transform="translate(-834 -18)"/><use fill="#fff" fill-opacity="0" stroke="#ff9227" stroke-miterlimit="50" stroke-width="2" clip-path="url(&quot;#f&quot;)" xlink:href="#b" transform="translate(-834 -18)"/><use fill="#fff" fill-opacity="0" stroke="#ff9227" stroke-miterlimit="50" stroke-width="2" clip-path="url(&quot;#g&quot;)" xlink:href="#c" transform="translate(-834 -18)"/><use fill="#fff" fill-opacity="0" stroke="#ff9227" stroke-miterlimit="50" stroke-width="2" clip-path="url(&quot;#h&quot;)" xlink:href="#d" transform="translate(-834 -18)"/></svg>