<svg xmlns="http://www.w3.org/2000/svg" xmlns:xlink="http://www.w3.org/1999/xlink" width="89" height="87"><defs><path id="a" d="M372 2753s-3 15-25 15"/><path id="b" d="M338.5 2761c5.25 0 9.5 2.91 9.5 6.5s-4.25 6.5-9.5 6.5-9.5-2.91-9.5-6.5 4.25-6.5 9.5-6.5z"/><path id="c" d="M299 2737c0-26.51 19.25-48 43-48s43 21.49 43 48"/><path id="d" d="M299 2735a3 3 0 0 1 3-3h14a3 3 0 0 1 3 3v15a3 3 0 0 1-3 3h-14a3 3 0 0 1-3-3z"/><path id="e" d="M365 2735a3 3 0 0 1 3-3h14a3 3 0 0 1 3 3v15a3 3 0 0 1-3 3h-14a3 3 0 0 1-3-3z"/><clipPath id="f"><use fill="#fff" xlink:href="#a"/></clipPath><clipPath id="g"><use fill="#fff" xlink:href="#b"/></clipPath><clipPath id="h"><use fill="#fff" xlink:href="#c"/></clipPath><clipPath id="i"><use fill="#fff" xlink:href="#d"/></clipPath><clipPath id="j"><use fill="#fff" xlink:href="#e"/></clipPath></defs><use fill="#fff" fill-opacity="0" stroke="#ff9227" stroke-miterlimit="50" stroke-width="2" clip-path="url(&quot;#f&quot;)" xlink:href="#a" transform="translate(-297 -2687)"/><use fill="#fff" fill-opacity="0" stroke="#ff9227" stroke-miterlimit="50" stroke-width="2" clip-path="url(&quot;#g&quot;)" xlink:href="#b" transform="translate(-297 -2687)"/><use fill="#fff" fill-opacity="0" stroke="#ff9227" stroke-miterlimit="50" stroke-width="2" clip-path="url(&quot;#h&quot;)" xlink:href="#c" transform="translate(-297 -2687)"/><use fill="#fff" fill-opacity="0" stroke="#ff9227" stroke-miterlimit="50" stroke-width="2" clip-path="url(&quot;#i&quot;)" xlink:href="#d" transform="translate(-297 -2687)"/><use fill="#fff" fill-opacity="0" stroke="#ff9227" stroke-miterlimit="50" stroke-width="2" clip-path="url(&quot;#j&quot;)" xlink:href="#e" transform="translate(-297 -2687)"/></svg>