<svg xmlns="http://www.w3.org/2000/svg" xmlns:xlink="http://www.w3.org/1999/xlink" width="134" height="123"><defs><path id="a" d="M920.35 985h-6.93c-.76 0-1.38-.6-1.38-1.34v-5.45a38.96 38.96 0 0 1-18.4.12v5.33c0 .74-.62 1.34-1.37 1.34h-6.93c-.76 0-1.38-.6-1.38-1.34v-9.6a1.29 1.29 0 0 1-.02-.26c0-.1 0-.2.02-.3 0-5.65-4.26-10.43-10.14-11.34a1.36 1.36 0 0 1-1.1-.97 18.07 18.07 0 0 1-.72-4.96c0-2.5.54-4.98 1.6-7.38.3-.66 1.1-.98 1.78-.7a7.93 7.93 0 0 0 10.9-7.14c.14-4.38-2-8.52-4.06-10.53-.36-.35-.49-.87-.33-1.35.15-.48.57-.83 1.07-.92.05 0 1.29-.2 3.12-.2 3.31 0 9.35.69 13.48 5.2.9-.07 1.9-.13 2.94-.13 16.82 0 30.5 10.39 30.5 23.15 0 7.03-4.1 13.54-11.28 17.96v9.47c0 .74-.61 1.34-1.37 1.34z"/><path id="b" d="M811.5 881a9.5 9.5 0 1 1 0 19 9.5 9.5 0 0 1 0-19z"/><path id="c" d="M934 916a2 2 0 1 1 0 4 2 2 0 0 1 0-4z"/><path id="d" d="M858 862a54 54 0 0 1 53.85 50H883.6c-2.21-11.94-13.05-21-26.09-21-14.64 0-26.5 11.42-26.5 25.5 0 13.27 10.54 24.18 24 25.39v28.03A54 54 0 0 1 858 862zm26 54.5v-.5h28a54 54 0 0 1-53 53.99v-28.03c13.94-.75 25-11.86 25-25.46z"/></defs><use fill="#598cf6" xlink:href="#a" transform="translate(-802 -862)"/><use fill="#598cf6" xlink:href="#b" transform="translate(-802 -862)"/><use fill="#598cf6" xlink:href="#c" transform="translate(-802 -862)"/><use fill="#ff9731" xlink:href="#d" transform="translate(-802 -862)"/></svg>